<?xml version="1.0" standalone="no"?><!DOCTYPE svg PUBLIC "-//W3C//DTD SVG 1.1//EN" "http://www.w3.org/Graphics/SVG/1.1/DTD/svg11.dtd"><svg t="1646930778589" class="icon" viewBox="0 0 1024 1024" version="1.1" xmlns="http://www.w3.org/2000/svg" p-id="1629" xmlns:xlink="http://www.w3.org/1999/xlink" width="200" height="200"><defs><style type="text/css"></style></defs><path d="M554.75712 1024C272.86016 1024 43.52 794.2656 43.52 511.88224 43.52 229.62688 272.86016 0 554.75712 0c164.41856 0 319.67744 79.86176 415.31392 213.62688L980.48 228.18304l-395.61728 284.12416 387.57376 295.51616-10.83392 14.25408C865.52064 948.51584 713.43104 1024 554.75712 1024zM554.75712 35.84C292.59264 35.84 79.3088 249.39008 79.3088 511.88224 79.3088 774.5024 292.59264 988.16 554.75712 988.16c141.59872 0 277.55008-64.62464 367.2576-173.73696L524.65152 511.45216l405.63712-291.32288C840.73984 104.41216 701.68064 35.84 554.75712 35.84zM636.51328 315.55072c-45.29152 0-82.14528-36.91008-82.14528-82.28352s36.85376-82.2784 82.14528-82.2784 82.14528 36.91008 82.14528 82.2784S681.8048 315.55072 636.51328 315.55072zM636.51328 186.8288c-25.56416 0-46.35648 20.83328-46.35648 46.4384s20.79232 46.44352 46.35648 46.44352c25.56416 0 46.35648-20.83328 46.35648-46.44352S662.07232 186.8288 636.51328 186.8288z" p-id="1630"></path></svg>