<?xml version="1.0" standalone="no"?><!DOCTYPE svg PUBLIC "-//W3C//DTD SVG 1.1//EN" "http://www.w3.org/Graphics/SVG/1.1/DTD/svg11.dtd"><svg t="1646931033134" class="icon" viewBox="0 0 1024 1024" version="1.1" xmlns="http://www.w3.org/2000/svg" p-id="779" xmlns:xlink="http://www.w3.org/1999/xlink" width="200" height="200"><defs><style type="text/css"></style></defs><path d="M746.47 783.63H262.65c-73.58 0-133.46-59.87-133.46-133.46s59.87-133.46 133.46-133.46h123.27c13.18 0 23.86 10.69 23.86 23.86s-10.68 23.86-23.86 23.86H262.65c-47.28 0-85.75 38.47-85.75 85.75s38.46 85.75 85.75 85.75h483.81c47.28 0 85.75-38.47 85.75-85.75s-38.46-85.75-85.75-85.75H611.51c-13.18 0-23.86-10.69-23.86-23.86s10.68-23.86 23.86-23.86h134.95c73.58 0 133.46 59.87 133.46 133.46s-59.87 133.46-133.45 133.46z" fill="#040000" p-id="780"></path><path d="M661.29 564.43h-71.26c-13.18 0-23.86-10.69-23.86-23.86s10.68-23.86 23.86-23.86h71.26c34.89 0 63.28-28.39 63.28-63.29 0-34.88-28.39-63.27-63.28-63.27H347.83c-34.89 0-63.27 28.39-63.27 63.27 0 34.9 28.38 63.29 63.27 63.29h75.67c13.18 0 23.86 10.69 23.86 23.86s-10.68 23.86-23.86 23.86h-75.67c-61.2 0-110.98-49.79-110.98-111 0-61.19 49.78-110.98 110.98-110.98h313.46c61.2 0 110.99 49.79 110.99 110.98 0 61.21-49.79 111-110.99 111z" fill="#040000" p-id="781"></path><path d="M655.99 390.16c-11.95 0-22.26-8.96-23.67-21.12-0.47-3.68-12.21-85.68-111.49-114.76 2.73 44.31-4.32 99.16-5.38 107.1-1.76 13.05-13.72 22.35-26.82 20.45-13.05-1.75-22.22-13.76-20.47-26.81 4.77-35.52 9.29-100.42 1.16-123.41a23.825 23.825 0 0 1 4.06-23.09c5.3-6.46 13.58-9.68 21.88-8.46 133.21 19.49 178.91 115.47 184.46 163.51 1.51 13.08-7.87 24.91-20.96 26.43-0.93 0.11-1.85 0.16-2.77 0.16z" fill="#040000" p-id="782"></path></svg>