<?xml version="1.0" standalone="no"?><!DOCTYPE svg PUBLIC "-//W3C//DTD SVG 1.1//EN" "http://www.w3.org/Graphics/SVG/1.1/DTD/svg11.dtd"><svg t="1646987335809" class="icon" viewBox="0 0 1024 1024" version="1.1" xmlns="http://www.w3.org/2000/svg" p-id="1795" xmlns:xlink="http://www.w3.org/1999/xlink" width="200" height="200"><defs><style type="text/css"></style></defs><path d="M1024.4 612l-199.7-98.6 82.6-83.4-121.3 6.4c41.7-38.4 68.3-92.9 68.3-153.9 0-115.6-94.1-209.7-209.7-209.7-77.2 0-144 42.3-180.4 104.5L442.4 84.5 386.5 185 239.1 24.2l59.5 208.4C127.3 274.9 0 429.3 0 613.7c0 217 175.9 392.9 392.9 392.9 217 0 392.9-175.9 392.9-392.9v-0.5L1024.4 612zM410.5 873c-143.2 0-259.3-116.1-259.3-259.3s116.1-259.3 259.3-259.3c143.2 0 259.3 116.1 259.3 259.3S553.8 873 410.5 873z m305.6-481.3C669 323 601 270 520.8 242.3c17.1-52.3 65.8-90.5 123.7-90.5 72.1 0 130.7 58.6 130.7 130.7 0 45.7-23.5 85.8-59.1 109.2z" fill="#1296db" p-id="1796"></path></svg>